<?xml version='1.0' encoding='UTF-8'?>
<svg x="0px" y="0px" viewBox="0 0 32 32" version="1.1" xmlns="http://www.w3.org/2000/svg" xmlns:xlink="http://www.w3.org/1999/xlink" xml:space="preserve" id="_x33__Flags" style="enable-background:new 0 0 32 32">
  <style type="text/css">
	.Red{fill:#D11C1C;}
	.Green{fill:#039C23;}
	.Yellow{fill:#FFB115;}
</style>
  <path d="M6.8,11l1.5,4.4L6.4,16l-1.6-4.3L2,3.7L4,3L6.8,11z M6.8,11c0,0,2.8-2.3,4.6,0c1.8,2.3,4.6,0,4.6,0l-2.8-8  c0,0-2.8,2.3-4.6,0C6.8,0.7,4,3,4,3l0,0L6.8,11z" class="Green" />
  <path d="M6.8,27l1.5,4.4L6.4,32l-1.6-4.3L2,19.7L4,19L6.8,27z M6.8,27c0,0,2.8-2.3,4.6,0c1.8,2.3,4.6,0,4.6,0l-2.8-8  c0,0-2.8,2.3-4.6,0C6.8,16.7,4,19,4,19l0,0L6.8,27z" class="Red" />
  <path d="M20.8,11l1.5,4.4L20.4,16l-1.6-4.3L16,3.7L18,3L20.8,11z M27.2,3c0,0-2.8,2.3-4.6,0C20.8,0.7,18,3,18,3  l2.8,8c0,0,2.8-2.3,4.6,0c1.8,2.3,4.6,0,4.6,0L27.2,3z" class="Yellow" />
</svg>