<?xml version='1.0' encoding='UTF-8'?>
<svg viewBox="-2 -4.32 32 32" xmlns="http://www.w3.org/2000/svg" xmlns:xlink="http://www.w3.org/1999/xlink">
  <g id="Layer_1" transform="translate(0, -2.3054)">
    <g transform="matrix(0.5833, 0, 0, 0.5833, 0, 0)">
      <g>
        <path d="M34, 16C26.3, 16 20, 22.3 20, 30C20, 37.7 26.3, 44 34, 44C41.7, 44 48, 37.7 48, 30C48, 22.3 41.7, 16 34, 16zM34, 41C27.9, 41 23, 36.1 23, 30C23, 23.9 27.9, 19 34, 19C40.1, 19 45, 23.9 45, 30C45, 36.1 40.1, 41 34, 41z" />
      </g>
    </g>
  </g>
  <g id="Layer_1" transform="translate(0, -2.3054)">
    <g transform="matrix(0.5833, 0, 0, 0.5833, 0, 0)">
      <g>
        <path d="M18.9, 12C19.9, 11.3 19.6, 7.9 18, 6C16.3, 4 12.7, 3.2 11.2, 4.8C9.6, 4.9 7.8, 5.6 7, 7C6.3, 8.2 6, 10.6 6.6, 12C6.1, 12.2 5.8, 13.1 6.1, 14C6.5, 15.1 6.5, 16.1 7.1, 16C7.1, 16 7.2, 16 7.3, 16C7.5, 17 7.7, 18 8, 19C8.4, 21 11, 23 13, 23C13, 23 13.1, 23 13.1, 23C15.1, 23 17.6, 21 18.1, 19C18.3, 17.9 18.6, 17 18.8, 16C18.9, 16 18.9, 16 19, 16C19.6, 16.1 19.6, 15.1 20, 14C20.3, 12.8 19.7, 11.6 18.9, 12z" style="fill:#413E9E" />
      </g>
    </g>
  </g>
  <g id="Layer_1" transform="translate(0, -2.3054)">
    <g transform="matrix(0.5833, 0, 0, 0.5833, 0, 0)">
      <g>
        <path d="M17, 24L13, 32L9, 24C4.4, 25.1 0, 28.2 0, 30L0, 33C0, 33.6 0.4, 34 1, 34L18.5, 34C18.2, 32.7 18, 31.4 18, 30C18, 28.1 18.3, 26.4 18.9, 24.7C18.4, 24.4 18, 24.2 17, 24z" />
      </g>
    </g>
  </g>
  <g id="Layer_1" transform="translate(0, -2.3054)">
    <g transform="matrix(0.5833, 0, 0, 0.5833, 0, 0)">
      <g>
        <path d="M40.5, 24.6L34.9, 28.2C34.6, 28.1 34.3, 28 34, 28C33.7, 28 33.5, 28.1 33.2, 28.2L30, 26.1C29.5, 25.8 28.9, 25.9 28.6, 26.4C28.3, 26.9 28.4, 27.5 28.9, 27.8L32, 29.8C32, 29.9 32, 29.9 32, 30C32, 31.1 32.9, 32 34, 32C35.1, 32 36, 31.1 36, 30C36, 30 36, 29.9 36, 29.9L41.6, 26.3C42.1, 26 42.2, 25.4 41.9, 24.9C41.6, 24.4 41, 24.3 40.5, 24.6z" style="fill:#413E9E" />
      </g>
    </g>
  </g>
  <g id="Layer_1" transform="translate(0, -2.3054)">
    <g transform="matrix(0.5833, 0, 0, 0.5833, 0, 0)">
      <g>
        <path d="M26.6, 17C25.9, 16.4 25, 16 24, 16C21.8, 16 20, 17.8 20, 20C20, 21 20.4, 21.9 21, 22.6C22.3, 20.2 24.2, 18.3 26.6, 17z" style="fill:#413E9E" />
      </g>
    </g>
  </g>
  <g id="Layer_1" transform="translate(0, -2.3054)">
    <g transform="matrix(0.5833, 0, 0, 0.5833, 0, 0)">
      <g>
        <path d="M47, 22.6C47.6, 21.9 48, 21 48, 20C48, 17.8 46.2, 16 44, 16C43, 16 42.1, 16.4 41.4, 17C43.8, 18.3 45.7, 20.2 47, 22.6z" style="fill:#413E9E" />
      </g>
    </g>
  </g>
</svg>