<?xml version='1.0' encoding='UTF-8'?>
<svg x="0px" y="0px" viewBox="0 0 16 16" version="1.1" xmlns="http://www.w3.org/2000/svg" xmlns:xlink="http://www.w3.org/1999/xlink" xml:space="preserve" id="Layer_1" style="enable-background:new 0 0 16 16">
  <style type="text/css">
	.Blue{fill:#3475BA;}
	.Black{fill:#737373;}
</style>
  <path d="M0,1v14h16V1H0z M15,14H1V2h14V14z" class="Black" />
  <path d="M8,4C5.8,4,4,5.8,4,8s1.8,4,4,4s4-1.8,4-4S10.2,4,8,4z M8,11c-1.6,0-3-1.4-3-3s1.3-3,3-3s3,1.3,3,3  S9.7,11,8,11z" class="Blue" />
  <polygon points="8,8 8,6 7,6 7,9 10,9 10,8 " class="Black" />
</svg>