<?xml version='1.0' encoding='UTF-8'?>
<svg viewBox="-1.9999 -2 32 32" xmlns="http://www.w3.org/2000/svg" xmlns:xlink="http://www.w3.org/1999/xlink">
  <g id="Layer_1" transform="translate(1.4737, -8.8422)">
    <g transform="matrix(1.4737, 0, 0, 1.4737, 0, 0)">
      <g>
        <rect x="2" y="6" width="1" height="2" rx="0" ry="0" />
      </g>
    </g>
  </g>
  <g id="Layer_1" transform="translate(1.4737, -8.8422)">
    <g transform="matrix(1.4737, 0, 0, 1.4737, 0, 0)">
      <g>
        <rect x="14" y="6" width="1" height="2" rx="0" ry="0" />
      </g>
    </g>
  </g>
  <g id="Layer_1" transform="translate(1.4737, -8.8422)">
    <g transform="matrix(1.4737, 0, 0, 1.4737, 0, 0)">
      <g>
        <g>
          <path d="M16, 7L16, 9L13, 9L13, 7L4, 7L4, 9L1, 9L1, 7L-1, 7L-1, 25L18, 25L18, 7L16, 7zM17, 24L0, 24L0, 11L17, 11L17, 24z" style="fill:#413E9E" />
        </g>
      </g>
    </g>
  </g>
  <g id="Layer_1" transform="translate(1.4737, -8.8422)">
    <g transform="matrix(1.4737, 0, 0, 1.4737, 0, 0)">
      <rect x="1" y="12" width="3" height="3" rx="0" ry="0" opacity="0.5" />
    </g>
  </g>
  <g id="Layer_1" transform="translate(1.4737, -8.8422)">
    <g transform="matrix(1.4737, 0, 0, 1.4737, 0, 0)">
      <rect x="5" y="12" width="3" height="3" rx="0" ry="0" />
    </g>
  </g>
  <g id="Layer_1" transform="translate(1.4737, -8.8422)">
    <g transform="matrix(1.4737, 0, 0, 1.4737, 0, 0)">
      <rect x="9" y="12" width="3" height="3" rx="0" ry="0" />
    </g>
  </g>
  <g id="Layer_1" transform="translate(1.4737, -8.8422)">
    <g transform="matrix(1.4737, 0, 0, 1.4737, 0, 0)">
      <rect x="13" y="12" width="3" height="3" rx="0" ry="0" />
    </g>
  </g>
  <g id="Layer_1" transform="translate(1.4737, -8.8422)">
    <g transform="matrix(1.4737, 0, 0, 1.4737, 0, 0)">
      <rect x="1" y="16" width="3" height="3" rx="0" ry="0" />
    </g>
  </g>
  <g id="Layer_1" transform="translate(1.4737, -8.8422)">
    <g transform="matrix(1.4737, 0, 0, 1.4737, 0, 0)">
      <rect x="5" y="16" width="3" height="3" rx="0" ry="0" />
    </g>
  </g>
  <g id="Layer_1" transform="translate(1.4737, -8.8422)">
    <g transform="matrix(1.4737, 0, 0, 1.4737, 0, 0)">
      <rect x="9" y="16" width="3" height="3" rx="0" ry="0" />
    </g>
  </g>
  <g id="Layer_1" transform="translate(1.4737, -8.8422)">
    <g transform="matrix(1.4737, 0, 0, 1.4737, 0, 0)">
      <rect x="13" y="16" width="3" height="3" rx="0" ry="0" />
    </g>
  </g>
  <g id="Layer_1" transform="translate(1.4737, -8.8422)">
    <g transform="matrix(1.4737, 0, 0, 1.4737, 0, 0)">
      <rect x="1" y="20" width="3" height="3" rx="0" ry="0" />
    </g>
  </g>
  <g id="Layer_1" transform="translate(1.4737, -8.8422)">
    <g transform="matrix(1.4737, 0, 0, 1.4737, 0, 0)">
      <rect x="5" y="20" width="3" height="3" rx="0" ry="0" />
    </g>
  </g>
  <g id="Layer_1" transform="translate(1.4737, -8.8422)">
    <g transform="matrix(1.4737, 0, 0, 1.4737, 0, 0)">
      <rect x="9" y="20" width="3" height="3" rx="0" ry="0" opacity="0.5" />
    </g>
  </g>
  <g id="Layer_1" transform="translate(1.4737, -8.8422)">
    <g transform="matrix(1.4737, 0, 0, 1.4737, 0, 0)">
      <rect x="13" y="20" width="3" height="3" rx="0" ry="0" opacity="0.5" />
    </g>
  </g>
</svg>