<?xml version='1.0' encoding='UTF-8'?>
<svg viewBox="-2 -7.835 32 32" xmlns="http://www.w3.org/2000/svg" xmlns:xlink="http://www.w3.org/1999/xlink">
  <g id="Layer_1" transform="translate(0, -5.835)">
    <g transform="matrix(0.5833, 0, 0, 0.5833, 0, 0)">
      <g>
        <path d="M0, 36C0, 37.1 0.9, 38 2, 38L10, 38L10, 24L0, 24L0, 36z" />
      </g>
    </g>
  </g>
  <g id="Layer_1" transform="translate(0, -5.835)">
    <g transform="matrix(0.5833, 0, 0, 0.5833, 0, 0)">
      <g>
        <path d="M7, 19C7, 19.6 6.6, 20 6, 20L4, 20C3.4, 20 3, 19.6 3, 19L3, 17L2, 17C0.9, 17 0, 17.9 0, 19L0, 23L10, 23L10, 17L7, 17L7, 19z" style="fill:#413E9E" />
      </g>
    </g>
  </g>
  <g id="Layer_1" transform="translate(0, -5.835)">
    <g transform="matrix(0.5833, 0, 0, 0.5833, 0, 0)">
      <g>
        <path d="M4.5, 19L5.5, 19C5.8, 19 6, 18.8 6, 18.5L6, 15.5C6, 15.2 5.8, 15 5.5, 15L4.5, 15C4.2, 15 4, 15.2 4, 15.5L4, 18.5C4, 18.8 4.2, 19 4.5, 19z" />
      </g>
    </g>
  </g>
  <g id="Layer_1" transform="translate(0, -5.835)">
    <g transform="matrix(0.5833, 0, 0, 0.5833, 0, 0)">
      <g>
        <path d="M38, 38L46, 38C47.1, 38 48, 37.1 48, 36L48, 24L38, 24L38, 38z" />
      </g>
    </g>
  </g>
  <g id="Layer_1" transform="translate(0, -5.835)">
    <g transform="matrix(0.5833, 0, 0, 0.5833, 0, 0)">
      <g>
        <path d="M46, 17L45, 17L45, 19C45, 19.6 44.6, 20 44, 20L42, 20C41.4, 20 41, 19.6 41, 19L41, 17L38, 17L38, 23L48, 23L48, 19C48, 17.9 47.1, 17 46, 17z" style="fill:#413E9E" />
      </g>
    </g>
  </g>
  <g id="Layer_1" transform="translate(0, -5.835)">
    <g transform="matrix(0.5833, 0, 0, 0.5833, 0, 0)">
      <g>
        <path d="M42.5, 19L43.5, 19C43.8, 19 44, 18.8 44, 18.5L44, 15.5C44, 15.2 43.8, 15 43.5, 15L42.5, 15C42.2, 15 42, 15.2 42, 15.5L42, 18.5C42, 18.8 42.2, 19 42.5, 19z" />
      </g>
    </g>
  </g>
  <g id="Layer_1" transform="translate(0, -5.835)">
    <g transform="matrix(0.5833, 0, 0, 0.5833, 0, 0)">
      <g>
        <path d="M16.5, 14L17.5, 14C17.8, 14 18, 13.8 18, 13.5L18, 10.5C18, 10.2 17.8, 10 17.5, 10L16.5, 10C16.2, 10 16, 10.2 16, 10.5L16, 13.5C16, 13.8 16.2, 14 16.5, 14z" />
      </g>
    </g>
  </g>
  <g id="Layer_1" transform="translate(0, -5.835)">
    <g transform="matrix(0.5833, 0, 0, 0.5833, 0, 0)">
      <g>
        <path d="M30.5, 14L31.5, 14C31.8, 14 32, 13.8 32, 13.5L32, 10.5C32, 10.2 31.8, 10 31.5, 10L30.5, 10C30.2, 10 30, 10.2 30, 10.5L30, 13.5C30, 13.8 30.2, 14 30.5, 14z" />
      </g>
    </g>
  </g>
  <g id="Layer_1" transform="translate(0, -5.835)">
    <g transform="matrix(0.5833, 0, 0, 0.5833, 0, 0)">
      <g>
        <path d="M11, 36C11, 37.1 11.9, 38 13, 38L35, 38C36.1, 38 37, 37.1 37, 36L37, 20L11, 20L11, 36zM18.3, 27.6L19, 26.9C19.4, 26.5 20, 26.5 20.4, 26.9L22.6, 29.1L28.5, 23.2C28.9, 22.8 29.5, 22.8 29.9, 23.2L30.6, 23.9C31, 24.3 31, 24.9 30.6, 25.3L23.3, 32.6C23.1, 32.8 22.8, 32.9 22.6, 32.9C22.3, 32.9 22.1, 32.8 21.9, 32.6L18.3, 29C17.9, 28.7 17.9, 28 18.3, 27.6z" />
      </g>
    </g>
  </g>
  <g id="Layer_1" transform="translate(0, -5.835)">
    <g transform="matrix(0.5833, 0, 0, 0.5833, 0, 0)">
      <g>
        <path d="M35, 12L33, 12L33, 14C33, 14.6 32.6, 15 32, 15L30, 15C29.4, 15 29, 14.6 29, 14L29, 12L19, 12L19, 14C19, 14.6 18.6, 15 18, 15L16, 15C15.4, 15 15, 14.6 15, 14L15, 12L13, 12C11.9, 12 11, 12.9 11, 14L11, 19L37, 19L37, 14C37, 12.9 36.1, 12 35, 12z" style="fill:#413E9E" />
      </g>
    </g>
  </g>
</svg>