<?xml version='1.0' encoding='UTF-8'?>
<svg viewBox="-4 -4 32 32" xmlns="http://www.w3.org/2000/svg" xmlns:xlink="http://www.w3.org/1999/xlink">
  <g id="Layer_1" transform="translate(-4, -4)" style="enable-background:new 0 0 32 32">
    <g id="RemoveCircled">
      <path d="M16, 4C9.4, 4 4, 9.4 4, 16C4, 22.6 9.4, 28 16, 28C22.6, 28 28, 22.6 28, 16C28, 9.4 22.6, 4 16, 4zM24, 18L8, 18L8, 14L24, 14L24, 18z" fill="#D11C1C" class="Red" />
    </g>
  </g>
  <g id="Layer_1" transform="translate(4, 4)" style="enable-background:new 0 0 16 16">
    <g id="Remove_1_">
      <path d="M15, 10L1, 10C0.4, 10 0, 9.6 0, 9L0, 7C0, 6.4 0.4, 6 1, 6L15, 6C15.6, 6 16, 6.4 16, 7L16, 9C16, 9.6 15.6, 10 15, 10z" fill="#D11C1C" class="Red" />
    </g>
  </g>
  <g id="Layer_1" transform="translate(4, 2)" style="enable-background:new 0 0 16 16">
    <g id="Remove_1_">
      <path d="M15, 10L1, 10C0.4, 10 0, 9.6 0, 9L0, 7C0, 6.4 0.4, 6 1, 6L15, 6C15.6, 6 16, 6.4 16, 7L16, 9C16, 9.6 15.6, 10 15, 10z" fill="#D11C1C" class="Red" />
    </g>
  </g>
  <g id="Layer_1" transform="translate(4, 6)" style="enable-background:new 0 0 16 16">
    <g id="Remove_1_">
      <path d="M15, 10L1, 10C0.4, 10 0, 9.6 0, 9L0, 7C0, 6.4 0.4, 6 1, 6L15, 6C15.6, 6 16, 6.4 16, 7L16, 9C16, 9.6 15.6, 10 15, 10z" fill="#D11C1C" class="Red" />
    </g>
  </g>
</svg>