<?xml version='1.0' encoding='UTF-8'?>
<svg viewBox="-1.9975 -1.9975 32 32" xmlns="http://www.w3.org/2000/svg" xmlns:xlink="http://www.w3.org/1999/xlink">
  <g transform="translate(0.0025, 0.0025)">
    <g transform="matrix(1.1667, 0, 0, 1.1667, 0, 0)">
      <g transform="translate(-0.0025, -0.0025)">
        <g transform="matrix(0.8571, 0, 0, 0.8571, 0, 0)">
          <g transform="translate(0, 0)">
            <g transform="matrix(0.875, 0, 0, 0.875, 0, 0)">
              <g transform="translate(0, 0)">
                <g transform="matrix(1.1428, 0, 0, 1.1428, 0, 0)">
                  <g transform="translate(0, 0)">
                    <g transform="matrix(1.1667, 0, 0, 1.1667, 0, 0)">
                      <g id="Layer_1" transform="translate(-4, -4)" style="enable-background:new 0 0 32 32">
                        <g id="CheckCircled">
                          <path d="M16, 4C9.4, 4 4, 9.4 4, 16C4, 22.6 9.4, 28 16, 28C22.6, 28 28, 22.6 28, 16C28, 9.4 22.6, 4 16, 4zM14, 22L8, 16L10, 14L14, 18L22, 10L24, 12L14, 22z" fill="#048C22" />
                        </g>
                      </g>
                    </g>
                  </g>
                </g>
              </g>
            </g>
          </g>
        </g>
      </g>
    </g>
  </g>
</svg>