<?xml version='1.0' encoding='UTF-8'?>
<svg viewBox="-4 -3.9 32 32" xmlns="http://www.w3.org/2000/svg" xmlns:xlink="http://www.w3.org/1999/xlink">
  <g id="Layer_1" transform="translate(-4, -3.9)" style="enable-background:new 0 0 32 32">
    <g id="Options_1_">
      <path d="M27.3, 23.8L19.1, 15.6C19.7, 14.5 20, 13.3 20, 11.9C20, 7.5 16.4, 3.9 12, 3.9C10.7, 3.9 9.5, 4.2 8.4, 4.8L13.3, 9.7C14.3, 10.7 14.3, 12.3 13.3, 13.3C12.3, 14.3 10.7, 14.3 9.7, 13.3L4.9, 8.4C4.3, 9.5 4, 10.7 4, 12C4, 16.4 7.6, 20 12, 20C13.3, 20 14.6, 19.7 15.7, 19.1L23.9, 27.3C24.8, 28.2 26.4, 28.2 27.3, 27.3C28.2, 26.3 28.2, 24.8 27.3, 23.8z" style="fill:#413E9E" />
    </g>
  </g>
</svg>