<?xml version='1.0' encoding='UTF-8'?>
<svg viewBox="-4 -4 32 32" xmlns="http://www.w3.org/2000/svg" xmlns:xlink="http://www.w3.org/1999/xlink">
  <g id="Layer_1" transform="translate(-4, -4)" style="enable-background:new 0 0 32 32">
    <g id="DegreeCelsius">
      <path d="M8, 4C5.8, 4 4, 5.8 4, 8C4, 10.2 5.8, 12 8, 12C10.2, 12 12, 10.2 12, 8C12, 5.8 10.2, 4 8, 4zM8, 10C6.9, 10 6, 9.1 6, 8C6, 6.9 6.9, 6 8, 6C9.1, 6 10, 6.9 10, 8C10, 9.1 9.1, 10 8, 10z" fill="#1177D7" class="Blue" />
    </g>
  </g>
  <g id="Layer_1" transform="translate(-4, -4)" style="enable-background:new 0 0 32 32">
    <g id="DegreeCelsius">
      <path d="M23.8, 20C23.8, 20.1 23.8, 20.3 23.7, 20.4C23.5, 21.1 23.2, 21.8 22.9, 22.3C22.5, 22.8 22.1, 23.3 21.6, 23.6C21.1, 23.9 20.6, 24 20.1, 24C19.5, 24 19, 23.8 18.6, 23.6C18.1, 23.3 17.6, 22.9 17.3, 22.3C16.9, 21.8 16.7, 21.1 16.5, 20.4C16.3, 19.7 16.2, 18.9 16.2, 18.1C16.2, 18.1 16.2, 18.1 16.2, 18C16.2, 18 16.2, 18 16.2, 17.9C16.2, 17.1 16.3, 16.3 16.5, 15.6C16.7, 14.9 17, 14.2 17.3, 13.7C17.7, 13.2 18.1, 12.7 18.6, 12.4C19.1, 12.1 19.6, 12 20.1, 12C20.7, 12 21.2, 12.2 21.6, 12.4C22.1, 12.7 22.6, 13.1 22.9, 13.7C23.3, 14.2 23.5, 14.9 23.7, 15.6C23.7, 15.7 23.7, 15.9 23.8, 16L27.9, 16C27.8, 15.3 27.7, 14.6 27.5, 14C27.1, 12.8 26.6, 11.7 25.8, 10.9C25, 10 24.1, 9.3 23.1, 8.7C22.2, 8.3 21.1, 8 20, 8C18.9, 8.1 17.8, 8.3 16.9, 8.7C15.8, 9.2 15, 9.9 14.2, 10.8C13.5, 11.7 12.9, 12.7 12.5, 13.9C12.1, 15.1 11.9, 16.4 11.9, 17.8C11.9, 17.8 11.9, 17.9 11.9, 17.9C11.9, 17.9 11.9, 18 11.9, 18C11.9, 19.4 12.1, 20.7 12.5, 21.9C12.9, 23.1 13.4, 24.2 14.2, 25C14.9, 25.9 15.8, 26.6 16.9, 27.1C17.8, 27.5 18.9, 27.8 20, 27.8C21.1, 27.7 22.2, 27.5 23.1, 27.1C24.2, 26.6 25, 25.9 25.8, 25C26.5, 24.1 27.1, 23.1 27.5, 21.9C27.7, 21.3 27.8, 20.6 27.9, 19.9L23.8, 19.9z" fill="#1177D7" class="Blue" />
    </g>
  </g>
</svg>