<?xml version='1.0' encoding='UTF-8'?>
<svg viewBox="-7.972 -8.025 32.002 32" xmlns="http://www.w3.org/2000/svg" xmlns:xlink="http://www.w3.org/1999/xlink">
  <g id="Layer_1" transform="translate(0.028, -0.025)" style="enable-background:new 0 0 16 16">
    <g id="Edit_1_">
      <polygon points="0,16 4,16 0,12  " style="fill:#245380" />
    </g>
  </g>
  <g id="Layer_1" transform="translate(0.028, -0.025)" style="enable-background:new 0 0 16 16">
    <g id="Edit_1_">
      <rect x="1.9" y="6.5" width="9.5" height="5.6" rx="0" ry="0" transform="matrix(0.7071, -0.7071, 0.7071, 0.7071, -4.6432, 7.4493)" style="fill:#245380" />
    </g>
  </g>
  <g id="Layer_1" transform="translate(0.028, -0.025)" style="enable-background:new 0 0 16 16">
    <g id="Edit_1_">
      <path d="M15.6, 2.5L13.5, 0.4C13, -0.1 12.1, -0.1 11.6, 0.4L9.4, 2.7L13.4, 6.7L15.7, 4.4C16.1, 3.9 16.1, 3 15.6, 2.5z" style="fill:#1C4D7A" />
    </g>
  </g>
  <g id="Layer_1" transform="translate(0.028, -0.025)" style="enable-background:new 0 0 16 16">
    <g id="Edit_1_">
      <rect x="1.7" y="10.5" width="1.9" height="5.6" rx="0" ry="0" fill="#FFFFFF" class="White" transform="matrix(0.7071, -0.7071, 0.7071, 0.7071, -8.6546, 5.7876)" />
    </g>
  </g>
  <g id="Layer_1" transform="translate(0.028, -0.025)" style="enable-background:new 0 0 16 16">
    <g id="Edit_1_">
      <rect x="9.7" y="2.5" width="1.9" height="5.6" rx="0" ry="0" fill="#FFFFFF" class="White" transform="matrix(0.7071, -0.7071, 0.7071, 0.7071, -0.6318, 9.1109)" />
    </g>
  </g>
</svg>