<?xml version='1.0' encoding='UTF-8'?>
<svg viewBox="-2 -2 32 32" xmlns="http://www.w3.org/2000/svg" xmlns:xlink="http://www.w3.org/1999/xlink">
  <g id="Layer_1" transform="translate(-2, -2)" style="enable-background:new 0 0 32 32">
    <g id="Calendar">
      <path d="M29, 4L26, 4L26, 7C26, 7.5 25.5, 8 25, 8L21, 8C20.5, 8 20, 7.5 20, 7L20, 4L12, 4L12, 7C12, 7.5 11.5, 8 11, 8L7, 8C6.5, 8 6, 7.5 6, 7L6, 4L3, 4C2.4, 4 2, 4.4 2, 5L2, 10L30, 10L30, 5C30, 4.4 29.6, 4 29, 4z" fill="#D11C1C" class="Red" />
    </g>
  </g>
  <g id="Layer_1" transform="translate(-2, -2)" style="enable-background:new 0 0 32 32">
    <g id="Calendar">
      <g class="st1">
        <rect x="8" y="14" width="4" height="4" rx="0" ry="0" style="fill:#413E9E" />
      </g>
    </g>
  </g>
  <g id="Layer_1" transform="translate(-2, -2)" style="enable-background:new 0 0 32 32">
    <g id="Calendar">
      <g class="st1">
        <rect x="14" y="20" width="4" height="4" rx="0" ry="0" style="fill:#413E9E" />
      </g>
    </g>
  </g>
  <g id="Layer_1" transform="translate(-2, -2)" style="enable-background:new 0 0 32 32">
    <g id="Calendar">
      <g class="st1">
        <rect x="8" y="20" width="4" height="4" rx="0" ry="0" fill="#727272" class="Black" />
      </g>
    </g>
  </g>
  <g id="Layer_1" transform="translate(-2, -2)" style="enable-background:new 0 0 32 32">
    <g id="Calendar">
      <g class="st1">
        <rect x="20" y="14" width="4" height="4" rx="0" ry="0" fill="#727272" class="Black" />
      </g>
    </g>
  </g>
  <g id="Layer_1" transform="translate(-2, -2)" style="enable-background:new 0 0 32 32">
    <g id="Calendar">
      <g class="st1">
        <rect x="14" y="14" width="4" height="4" rx="0" ry="0" fill="#727272" class="Black" />
      </g>
    </g>
  </g>
  <g id="Layer_1" transform="translate(-2, -2)" style="enable-background:new 0 0 32 32">
    <g id="Calendar">
      <g class="st1">
        <rect x="20" y="20" width="4" height="4" rx="0" ry="0" fill="#727272" class="Black" />
      </g>
    </g>
  </g>
  <g id="Layer_1" transform="translate(-2, -2)" style="enable-background:new 0 0 32 32">
    <g id="Calendar">
      <path d="M28, 10L28, 28L4, 28L4, 10L2, 10L2, 29C2, 29.6 2.4, 30 3, 30L29, 30C29.6, 30 30, 29.6 30, 29L30, 10L28, 10z" fill="#727272" class="Black" />
    </g>
  </g>
  <g id="Layer_1" transform="translate(-2, -2)" style="enable-background:new 0 0 32 32">
    <g id="Calendar">
      <rect x="22" y="2" width="2" height="4" rx="0" ry="0" fill="#727272" class="Black" />
    </g>
  </g>
  <g id="Layer_1" transform="translate(-2, -2)" style="enable-background:new 0 0 32 32">
    <g id="Calendar">
      <rect x="8" y="2" width="2" height="4" rx="0" ry="0" fill="#727272" class="Black" />
    </g>
  </g>
  <g id="Layer_1" transform="translate(14, 14)" style="enable-background:new 0 0 16 16">
    <g id="User">
      <path d="M4, 4.9C3.9, 5.3 4.1, 5.5 4.3, 5.8C4.5, 6.1 4.2, 6.8 4.9, 6.8C4.9, 6.8 4.9, 6.9 4.9, 6.9C5.3, 8.4 6.2, 10 8, 10C9.8, 10 10.8, 8.4 11.2, 6.9C11.2, 6.9 11.2, 6.8 11.2, 6.8C11.9, 6.8 11.6, 6.1 11.8, 5.8C12, 5.5 12.1, 5.3 12, 4.9C11.9, 4.6 11.7, 4.7 11.6, 4.7C12.8, 1.6 10.9, 1.8 10.9, 1.8C10.9, 1.8 10.7, 0 7.2, 0C4, 0 3.6, 2.5 4.3, 4.7C4.3, 4.8 4.1, 4.8 4, 4.9z" style="fill:#413E9E" />
    </g>
  </g>
  <g id="Layer_1" transform="translate(14, 14)" style="enable-background:new 0 0 16 16">
    <g id="User">
      <path d="M10.7, 10C10.2, 10.9 9.3, 12 8, 12C6.7, 12 5.9, 10.9 5.3, 10C3.8, 12.1 0, 10.6 0, 15.1L0, 16L16, 16L16, 15.1C16, 10.6 12.2, 12.1 10.7, 10z" style="fill:#413E9E" />
    </g>
  </g>
</svg>