<?xml version='1.0' encoding='UTF-8'?>
<svg viewBox="-4 -2 32 32" xmlns="http://www.w3.org/2000/svg" xmlns:xlink="http://www.w3.org/1999/xlink">
  <g transform="translate(0, 0)">
    <g transform="translate(0, 0)">
      <g transform="translate(0.0019, 0)">
        <g transform="matrix(0.875, 0, 0, 0.875, 0, 0)">
          <g transform="translate(0.0007, 0)">
            <g transform="matrix(1.1429, 0, 0, 1.1429, 0, 0)">
              <g transform="translate(0, 0)">
                <g transform="translate(-0.0006, 0)">
                  <g transform="matrix(0.875, 0, 0, 0.875, 0, 0)">
                    <g transform="translate(-0.0018, -0.0025)">
                      <g transform="matrix(1.1429, 0, 0, 1.1429, 0, 0)">
                        <g transform="translate(0, 0)">
                          <g id="Layer_1" transform="translate(-4, -2)" style="enable-background:new 0 0 32 32">
                            <g id="Scanner">
                              <rect x="6" y="14" width="12" height="2" rx="0" ry="0" fill="#FFB115" class="Yellow" />
                            </g>
                          </g>
                        </g>
                      </g>
                    </g>
                  </g>
                </g>
              </g>
            </g>
          </g>
        </g>
      </g>
    </g>
  </g>
  <g transform="translate(0, 0)">
    <g transform="translate(0, 0)">
      <g transform="translate(0.0019, 0)">
        <g transform="matrix(0.875, 0, 0, 0.875, 0, 0)">
          <g transform="translate(0.0007, 0)">
            <g transform="matrix(1.1429, 0, 0, 1.1429, 0, 0)">
              <g transform="translate(0, 0)">
                <g transform="translate(-0.0006, 0)">
                  <g transform="matrix(0.875, 0, 0, 0.875, 0, 0)">
                    <g transform="translate(-0.0018, -0.0025)">
                      <g transform="matrix(1.1429, 0, 0, 1.1429, 0, 0)">
                        <g transform="translate(0, 0)">
                          <g id="Layer_1" transform="translate(-4, -2)" style="enable-background:new 0 0 32 32">
                            <g id="Scanner">
                              <path d="M12.3, 2.3C11.9, 1.9 11.3, 1.9 10.9, 2.3L10.2, 3L25.2, 18L4, 18L4, 29C4, 29.6 4.4, 30 5, 30L27, 30C27.6, 30 28, 29.6 28, 29L28, 18L12.3, 2.3zM10, 26C8.9, 26 8, 25.1 8, 24C8, 22.9 8.9, 22 10, 22C11.1, 22 12, 22.9 12, 24C12, 25.1 11.1, 26 10, 26z" fill="#FFB115" class="Yellow" />
                            </g>
                          </g>
                        </g>
                      </g>
                    </g>
                  </g>
                </g>
              </g>
            </g>
          </g>
        </g>
      </g>
    </g>
  </g>
</svg>