<?xml version='1.0' encoding='UTF-8'?>
<svg x="0px" y="0px" viewBox="0 0 32 32" version="1.1" xmlns="http://www.w3.org/2000/svg" xmlns:xlink="http://www.w3.org/1999/xlink" xml:space="preserve" id="Layer_1" style="enable-background:new 0 0 32 32">
  <style type="text/css">
	.Blue{fill:#1177D7;}
	.Black{fill:#727272;}
	.Yellow{fill:#FFB115;}
	.Red{fill:#D11C1C;}
</style>
  <g id="Wind">
    <path d="M16,8c0-2.2-1.8-4-4-4S8,5.8,8,8h2c0-1.1,0.9-2,2-2s2,0.9,2,2c0,1.1-0.9,2-2,2H4v2h8C14.2,12,16,10.2,16,8z" class="Blue" />
    <path d="M17,18H6v2h11c1.7,0,3,1.3,3,3s-1.3,3-3,3s-3-1.3-3-3v-1h-2v1c0,2.8,2.2,5,5,5s5-2.2,5-5S19.8,18,17,18z" class="Blue" />
    <path d="M24,4c-3.3,0-6,2.7-6,6h2c0-2.2,1.8-4,4-4s4,1.8,4,4c0,2.2-1.8,4-4,4H2v2h22c3.3,0,6-2.7,6-6S27.3,4,24,4z" class="Blue" />
  </g>
</svg>