<?xml version='1.0' encoding='UTF-8'?>
<svg viewBox="-2 -4 32 32" xmlns="http://www.w3.org/2000/svg" xmlns:xlink="http://www.w3.org/1999/xlink">
  <g id="Layer_1" transform="translate(-2, -4)" style="enable-background:new 0 0 32 32">
    <g id="Wind">
      <path d="M16, 8C16, 5.8 14.2, 4 12, 4C9.8, 4 8, 5.8 8, 8L10, 8C10, 6.9 10.9, 6 12, 6C13.1, 6 14, 6.9 14, 8C14, 9.1 13.1, 10 12, 10L4, 10L4, 12L12, 12C14.2, 12 16, 10.2 16, 8z" style="fill:#1B3975" />
    </g>
  </g>
  <g id="Layer_1" transform="translate(-2, -4)" style="enable-background:new 0 0 32 32">
    <g id="Wind">
      <path d="M17, 18L6, 18L6, 20L17, 20C18.7, 20 20, 21.3 20, 23C20, 24.7 18.7, 26 17, 26C15.3, 26 14, 24.7 14, 23L14, 22L12, 22L12, 23C12, 25.8 14.2, 28 17, 28C19.8, 28 22, 25.8 22, 23C22, 20.2 19.8, 18 17, 18z" style="fill:#1B3975" />
    </g>
  </g>
  <g id="Layer_1" transform="translate(-2, -4)" style="enable-background:new 0 0 32 32">
    <g id="Wind">
      <path d="M24, 4C20.7, 4 18, 6.7 18, 10L20, 10C20, 7.8 21.8, 6 24, 6C26.2, 6 28, 7.8 28, 10C28, 12.2 26.2, 14 24, 14L2, 14L2, 16L24, 16C27.3, 16 30, 13.3 30, 10C30, 6.7 27.3, 4 24, 4z" style="fill:#1B3975" />
    </g>
  </g>
</svg>