<?xml version='1.0' encoding='UTF-8'?>
<svg viewBox="-2.0025 -2.0025 32 32" xmlns="http://www.w3.org/2000/svg" xmlns:xlink="http://www.w3.org/1999/xlink">
  <g id="Layer_1" transform="translate(-0.0024, -0.0024)" style="enable-background:new 0 0 16 16">
    <g transform="matrix(1.75, 0, 0, 1.75, 0, 0)">
      <g>
        <path d="M10, 0L10, 6L16, 6C16, 2.7 13.3, 0 10, 0z" class="dx_white" />
      </g>
    </g>
  </g>
  <g id="Layer_1" transform="translate(-0.0024, -0.0024)" style="enable-background:new 0 0 16 16">
    <g transform="matrix(1.75, 0, 0, 1.75, 0, 0)">
      <g>
        <path d="M9, 1C5.7, 1 3, 3.7 3, 7C3, 7 3, 7.1 3, 7.1C3.3, 7 3.7, 7 4, 7C6.8, 7 9, 9.2 9, 12C9, 12.3 9, 12.7 8.9, 13C8.9, 13 9, 13 9, 13C12.3, 13 15, 10.3 15, 7L9, 7L9, 1z" class="dx_white" />
      </g>
    </g>
  </g>
  <g id="Layer_1" transform="translate(-0.0024, -0.0024)" style="enable-background:new 0 0 16 16">
    <g transform="matrix(1.75, 0, 0, 1.75, 0, 0)">
      <g>
        <path d="M4, 8C1.8, 8 0, 9.8 0, 12C0, 14.2 1.8, 16 4, 16C6.2, 16 8, 14.2 8, 12C8, 9.8 6.2, 8 4, 8zM5, 12L5, 11L4, 11L4, 10L3, 10L3, 12L1, 12C1, 10.3 2.3, 9 4, 9C5.7, 9 7, 10.3 7, 12L5, 12z" class="dx_white" />
      </g>
    </g>
  </g>
</svg>