<?xml version='1.0' encoding='UTF-8'?>
<svg viewBox="-2 -2 32 32" xmlns="http://www.w3.org/2000/svg" xmlns:xlink="http://www.w3.org/1999/xlink">
  <g id="Layer_1" transform="translate(-2, -2)" style="enable-background:new 0 0 32 32">
    <g id="WindDirection">
      <path d="M16, 2C8.3, 2 2, 8.3 2, 16C2, 23.7 8.3, 30 16, 30C23.7, 30 30, 23.7 30, 16C30, 8.3 23.7, 2 16, 2zM16, 28C9.4, 28 4, 22.6 4, 16C4, 9.4 9.4, 4 16, 4C22.6, 4 28, 9.4 28, 16C28, 22.6 22.6, 28 16, 28z" class="Blue" />
    </g>
  </g>
  <g id="Layer_1" transform="translate(-2, -2)" style="enable-background:new 0 0 32 32">
    <g id="WindDirection">
      <polygon points="14,18 14,26 23,9 6,18  " fill="Transparent" class="Transparent" />
    </g>
  </g>
  <g id="Layer_1" transform="translate(4, 8)" style="enable-background:new 0 0 16 16">
    <g id="Arrow4LeftDown_2_">
      <polygon points="11,14 13,12 5.4,12 14,3.4 12.6,2 4,10.6 4,3 2,5 2,14  " fill="#1177D7" class="Blue" />
    </g>
  </g>
  <g id="Layer_1" transform="translate(8, 4)" style="enable-background:new 0 0 16 16">
    <g id="Arrow4RightUp_2_">
      <polygon points="5,2 3,4 10.6,4 2,12.6 3.4,14 12,5.4 12,13 14,11 14,2  " fill="#1177D7" class="Blue" />
    </g>
  </g>
</svg>