<?xml version='1.0' encoding='UTF-8'?>
<svg viewBox="-2 -2 32 32" xmlns="http://www.w3.org/2000/svg" xmlns:xlink="http://www.w3.org/1999/xlink">
  <g id="Layer_1" transform="translate(-1.8666, 0)" style="enable-background:new 0 0 32 32">
    <g transform="matrix(0.9333, 0, 0, 0.9333, 0, 0)">
      <g id="ViewSettings_1_">
        <path d="M32, 9L32, 7L29.5, 6.4C29.4, 6 29.2, 5.6 29, 5.2L30.5, 3.1L28.9, 1.5L26.8, 3C26.4, 2.8 26, 2.6 25.6, 2.5L25, 0L23, 0L22.4, 2.5C22, 2.6 21.6, 2.8 21.2, 3L19.2, 1.5L17.5, 3.2L19, 5.2C18.8, 5.6 18.6, 6 18.5, 6.4L16, 7L16, 9L18.5, 9.6C18.6, 10 18.8, 10.4 19, 10.8L17.5, 12.9L19.1, 14.5L21.2, 13C21.6, 13.2 22, 13.4 22.4, 13.5L23, 16L25, 16L25.6, 13.5C26, 13.4 26.4, 13.2 26.8, 13L28.9, 14.5L30.5, 12.9L29, 10.8C29.2, 10.4 29.4, 10 29.5, 9.6L32, 9zM24, 10C22.9, 10 22, 9.1 22, 8C22, 6.9 22.9, 6 24, 6C25.1, 6 26, 6.9 26, 8C26, 9.1 25.1, 10 24, 10zM18, 21C18, 20.7 18, 20.4 17.9, 20.2L20, 18.4L19.2, 16.5L16.5, 16.7C16.2, 16.3 15.8, 15.9 15.3, 15.5L15.5, 12.8L13.6, 12L11.8, 14.1C11.6, 14 11.3, 14 11, 14C10.7, 14 10.4, 14 10.2, 14.1L8.4, 12L6.5, 12.8L6.7, 15.5C6.3, 15.8 5.9, 16.2 5.5, 16.7L2.8, 16.5L2, 18.4L4.1, 20.2C4, 20.4 4, 20.7 4, 21C4, 21.3 4, 21.6 4.1, 21.8L2, 23.6L2.8, 25.5L5.5, 25.3C5.8, 25.7 6.2, 26.1 6.7, 26.5L6.5, 29.2L8.4, 30L10.2, 27.9C10.5, 27.9 10.7, 28 11, 28C11.3, 28 11.6, 28 11.8, 27.9L13.6, 30L15.5, 29.2L15.3, 26.5C15.7, 26.2 16.1, 25.8 16.5, 25.3L19.2, 25.5L20, 23.6L17.9, 21.8C18, 21.6 18, 21.3 18, 21zM11, 24C9.3, 24 8, 22.7 8, 21C8, 19.3 9.3, 18 11, 18C12.7, 18 14, 19.3 14, 21C14, 22.7 12.7, 24 11, 24z" fill="#727272" class="Black" />
      </g>
    </g>
  </g>
</svg>