<?xml version='1.0' encoding='UTF-8'?>
<svg viewBox="-8.025 -2 32 32" xmlns="http://www.w3.org/2000/svg" xmlns:xlink="http://www.w3.org/1999/xlink">
  <g id="Layer_1" transform="translate(-8.025, -2)" style="enable-background:new 0 0 32 32">
    <g id="Walk_1_">
      <path d="M13.5, 21.1L8.2, 28.4C7.9, 28.8 8, 29.5 8.4, 29.8C8.8, 30.1 9.5, 30 9.8, 29.6L14.9, 22.6L13.5, 21.1z" style="fill:#3137A8" />
    </g>
  </g>
  <g id="Layer_1" transform="translate(-8.025, -2)" style="enable-background:new 0 0 32 32">
    <g id="Walk_1_">
      <path d="M21.4, 23.4L18, 20L18, 20L18, 12C18, 10.9 17.1, 10 16, 10L15, 10C15, 10 14.6, 10 14.3, 10.3L10.3, 14.3C10.3, 14.3 10.2, 14.4 10.2, 14.4C10.2, 14.5 10.1, 14.5 10.1, 14.6C10.1, 14.7 10, 14.8 10, 15C10, 15 10, 15 10, 15L10, 19C10, 19.5 10.4, 20 11, 20C11.6, 20 12, 19.5 12, 19L12, 15.4L14, 13.4L14, 18C14, 18 14, 18 14, 18C14, 18.1 14, 18.2 14, 18.3C14, 18.3 14, 18.4 14, 18.4C14, 18.5 14, 18.6 14.1, 18.7C14.1, 18.7 14.1, 18.7 14.1, 18.8C14.2, 19 14.3, 19.2 14.5, 19.4L19.9, 24.8C19.9, 24.8 19.9, 24.9 19.9, 24.9L19.9, 28.9C19.9, 29.4 20.3, 29.9 20.9, 29.9C21.5, 29.9 21.9, 29.4 21.9, 28.9L21.9, 24.9C21.9, 24.9 21.9, 24.9 21.9, 24.8C22, 24.4 21.8, 23.8 21.4, 23.4z" style="fill:#3137A8" />
    </g>
  </g>
  <g id="Layer_1" transform="translate(-8.025, -2)" style="enable-background:new 0 0 32 32">
    <g id="Walk_1_">
      <path d="M23.7, 16.3L20, 12.6L20, 15.4L22.3, 17.7C22.7, 18.1 23.3, 18.1 23.7, 17.7C24.1, 17.3 24.1, 16.7 23.7, 16.3z" style="fill:#3137A8" />
    </g>
  </g>
  <g id="Layer_1" transform="translate(-8.025, -2)" style="enable-background:new 0 0 32 32">
    <g id="Walk_1_">
      <circle cx="17" cy="5" r="3" style="fill:#3137A8" />
    </g>
  </g>
</svg>